<svg width="18" height="21" viewBox="0 0 18 21" fill="none" xmlns="http://www.w3.org/2000/svg">
<path d="M13.6571 7.25355L14.5106 6.4H13.3035H6.60033C6.41468 6.4 6.23663 6.32625 6.10536 6.19497C5.97408 6.0637 5.90033 5.88565 5.90033 5.7C5.90033 5.51435 5.97408 5.3363 6.10536 5.20503C6.23663 5.07375 6.41468 5 6.60033 5H13.3035H14.5106L13.6571 4.14645L12.1055 2.59485L12.1055 2.59479L12.0993 2.58876C12.0324 2.52418 11.9791 2.44694 11.9424 2.36154C11.9057 2.27614 11.8864 2.18428 11.8856 2.09134C11.8848 1.99839 11.9025 1.90622 11.9377 1.82019C11.9729 1.73416 12.0249 1.656 12.0906 1.59028C12.1563 1.52455 12.2345 1.47258 12.3205 1.43738C12.4065 1.40218 12.4987 1.38447 12.5917 1.38528C12.6846 1.38609 12.7765 1.4054 12.8619 1.44208C12.9473 1.47877 13.0245 1.5321 13.0891 1.59896L13.089 1.59901L13.0952 1.60515L16.6951 5.2051C16.8264 5.33637 16.9001 5.51438 16.9001 5.7C16.9001 5.88559 16.8264 6.06358 16.6952 6.19485C16.6952 6.19486 16.6951 6.19488 16.6951 6.1949L13.0986 9.79138C12.9669 9.91724 12.7913 9.98681 12.609 9.98523C12.4255 9.98363 12.2499 9.91001 12.1201 9.78023C11.9903 9.65044 11.9167 9.47487 11.9151 9.29134C11.9135 9.10906 11.9831 8.9334 12.109 8.80168L13.6571 7.25355ZM4.34358 13.7464L3.49002 14.6H4.69713H11.4003C11.586 14.6 11.764 14.6737 11.8953 14.805C12.0266 14.9363 12.1003 15.1143 12.1003 15.3C12.1003 15.4857 12.0266 15.6637 11.8953 15.795C11.764 15.9263 11.586 16 11.4003 16H4.69713H3.49002L4.34358 16.8536L5.89168 18.4017C6.01755 18.5334 6.08714 18.7091 6.08556 18.8913C6.08396 19.0749 6.01034 19.2504 5.88056 19.3802C5.75077 19.51 5.5752 19.5836 5.39167 19.5852C5.20939 19.5868 5.03374 19.5172 4.90201 19.3914L1.30554 15.7949C1.30552 15.7949 1.3055 15.7949 1.30548 15.7948C1.17429 15.6636 1.10059 15.4856 1.10059 15.3C1.10059 15.1144 1.17429 14.9364 1.30548 14.8052C1.3055 14.8051 1.30552 14.8051 1.30554 14.8051L4.90548 11.2052L4.90554 11.2052L4.91157 11.199C4.97615 11.1321 5.05339 11.0788 5.13879 11.0421C5.22419 11.0054 5.31605 10.9861 5.40899 10.9853C5.50194 10.9845 5.59411 11.0022 5.68014 11.0374C5.76617 11.0726 5.84433 11.1246 5.91005 11.1903C5.97578 11.256 6.02775 11.3342 6.06295 11.4202C6.09815 11.5062 6.11586 11.5984 6.11505 11.6913C6.11424 11.7843 6.09493 11.8761 6.05825 11.9615C6.02156 12.0469 5.96823 12.1242 5.90137 12.1888L5.90132 12.1887L5.89518 12.1948L4.34358 13.7464Z" fill="#1C64F2" stroke="#1C64F2"/>
</svg>
