<svg width="20" height="21" viewBox="0 0 20 21" fill="none" xmlns="http://www.w3.org/2000/svg">
<path d="M11.0331 3.68762V4.02611L11.3473 4.15185L16.0921 6.05025L16.3007 6.13369L16.5016 6.03318L18.4201 5.07334C18.4201 5.07332 18.4201 5.0733 18.4202 5.07329C18.5863 4.99032 18.7787 4.97675 18.9549 5.03557C19.1311 5.0944 19.2767 5.22082 19.3597 5.38703C19.4428 5.55324 19.4563 5.74561 19.3975 5.92184L19.8718 6.08017L19.3975 5.92184C19.3387 6.09806 19.2123 6.2437 19.046 6.32671L19.046 6.32674L17.5664 7.06594L17.1828 7.25758L17.3137 7.6659L19.3993 14.1698C19.4406 14.2985 19.4437 14.4364 19.4083 14.5668C19.3729 14.6973 19.3005 14.8146 19.1998 14.9048L19.1997 14.905C18.4121 15.6111 17.3913 16.0011 16.3336 16L16.3325 16C15.2748 16.0011 14.254 15.6111 13.4664 14.905L13.4663 14.9048C13.3656 14.8146 13.2932 14.6973 13.2578 14.5668C13.2224 14.4364 13.2256 14.2986 13.2668 14.1699C13.2668 14.1699 13.2668 14.1698 13.2668 14.1698L15.3248 7.75108L15.4671 7.30725L15.0343 7.13417L11.7187 5.80817L11.0331 5.53396V6.27242V17.7V18.2H11.5331H13.9331C14.1187 18.2 14.2968 18.2738 14.428 18.405L14.7816 18.0515L14.428 18.4051C14.5593 18.5363 14.6331 18.7144 14.6331 18.9C14.6331 19.0857 14.5593 19.2637 14.428 19.395C14.2968 19.5263 14.1187 19.6 13.9331 19.6H6.73305C6.5474 19.6 6.36935 19.5263 6.23808 19.395C6.1068 19.2637 6.03305 19.0857 6.03305 18.9C6.03305 18.7144 6.1068 18.5363 6.23808 18.4051C6.36935 18.2738 6.5474 18.2 6.73305 18.2H9.13305H9.63305V17.7V6.27242V5.53396L8.94739 5.80817L5.63179 7.13417L5.19902 7.30725L5.34133 7.75108L7.39931 14.1698C7.39932 14.1698 7.39932 14.1699 7.39933 14.1699C7.44056 14.2986 7.44366 14.4364 7.40826 14.5668C7.37286 14.6973 7.30046 14.8146 7.19981 14.9048L7.19967 14.905C6.41212 15.6111 5.39131 16.0011 4.33356 16L4.33254 16C3.27479 16.0011 2.25398 15.6111 1.46644 14.905L1.4663 14.9048C1.36564 14.8146 1.29324 14.6973 1.25784 14.5668C1.22245 14.4364 1.22555 14.2986 1.26677 14.1699C1.26678 14.1699 1.26679 14.1698 1.2668 14.1698L3.35237 7.6659L3.48322 7.25785L3.1 7.06608L1.62815 6.32956C1.47095 6.24286 1.35298 6.09901 1.2988 5.92768C1.24395 5.75424 1.25877 5.56626 1.34012 5.40356C1.42147 5.24086 1.56296 5.11621 1.73463 5.05603C1.9042 4.99658 2.09006 5.00464 2.25374 5.07838L4.16476 6.03329L4.36557 6.13364L4.57399 6.05025L9.31879 4.15185L9.63305 4.02611V3.68762V2.10002C9.63305 1.91437 9.7068 1.73633 9.83808 1.60505L9.48453 1.2515L9.83808 1.60505C9.96935 1.47377 10.1474 1.40002 10.3331 1.40002C10.5187 1.40002 10.6968 1.47377 10.828 1.60505C10.9593 1.73633 11.0331 1.91437 11.0331 2.10002V3.68762ZM4.80919 10.6762L4.33305 9.19075L3.85691 10.6762L2.87531 13.7386L2.73876 14.1646L3.14703 14.3475C3.51016 14.5102 3.91092 14.6 4.33305 14.6C4.7548 14.6 5.15705 14.5104 5.51976 14.3472L5.92714 14.164L5.79079 13.7386L4.80919 10.6762ZM16.8092 10.6762L16.3331 9.19075L15.8569 10.6762L14.8753 13.7386L14.7388 14.1646L15.147 14.3475C15.5102 14.5102 15.9109 14.6 16.3331 14.6C16.7548 14.6 17.1571 14.5104 17.5198 14.3472L17.9271 14.164L17.7908 13.7386L16.8092 10.6762Z" fill="#1C64F2" stroke="#1C64F2"/>
</svg>
