<svg width="21" height="21" viewBox="0 0 21 21" fill="none" xmlns="http://www.w3.org/2000/svg">
<path d="M1.40039 6.89996C1.40039 6.25134 1.4442 5.61205 1.5303 4.98854C4.82528 4.853 7.98171 3.6238 10.5004 1.49566C13.0191 3.62324 16.1753 4.85201 19.4699 4.98735C19.5558 5.61255 19.6004 6.2507 19.6004 6.89996C19.6004 12.889 15.8117 17.9946 10.5004 19.9488C5.1891 17.9946 1.40039 12.889 1.40039 6.89996ZM11.7025 16.502C12.0213 16.1832 12.2004 15.7508 12.2004 15.3C12.2004 14.8491 12.0213 14.4167 11.7025 14.0979C11.3837 13.7791 10.9513 13.6 10.5004 13.6C10.0495 13.6 9.61712 13.7791 9.29831 14.0979C8.9795 14.4167 8.80039 14.8491 8.80039 15.3C8.80039 15.7508 8.9795 16.1832 9.29831 16.502C9.61712 16.8209 10.0495 17 10.5004 17C10.9513 17 11.3837 16.8209 11.7025 16.502ZM12.2004 6.89996C12.2004 6.44909 12.0213 6.01669 11.7025 5.69788C11.3837 5.37907 10.9513 5.19996 10.5004 5.19996C10.0495 5.19996 9.61712 5.37907 9.29831 5.69788C8.9795 6.01669 8.80039 6.44909 8.80039 6.89996V10.5C8.80039 10.9508 8.9795 11.3832 9.29831 11.702C9.61712 12.0209 10.0495 12.2 10.5004 12.2C10.9513 12.2 11.3837 12.0209 11.7025 11.702C12.0213 11.3832 12.2004 10.9508 12.2004 10.5V6.89996Z" fill="#1C64F2" stroke="#1C64F2"/>
</svg>
