<svg width="20" height="21" viewBox="0 0 20 21" fill="none" xmlns="http://www.w3.org/2000/svg">
<path d="M8.18298 6.19999H8.30099L8.40654 6.14723L17.7545 1.47446C17.7545 1.47445 17.7545 1.47444 17.7545 1.47443C17.8612 1.42114 17.9797 1.39598 18.0989 1.40134C18.218 1.40671 18.3338 1.44243 18.4353 1.50513C18.5368 1.56782 18.6205 1.6554 18.6787 1.75955C18.7368 1.86371 18.7673 1.98099 18.7674 2.10026V16.4997C18.7673 16.619 18.7368 16.7363 18.6787 16.8404L19.1153 17.0841L18.6787 16.8404C18.6205 16.9446 18.5368 17.0322 18.4353 17.0949C18.3338 17.1576 18.218 17.1933 18.0989 17.1986C17.9797 17.204 17.8612 17.1788 17.7545 17.1255L9.89096 13.1944L9.16738 12.8326V13.6416V18.9C9.16738 19.0856 9.09363 19.2637 8.96236 19.395C8.83108 19.5262 8.65304 19.6 8.46738 19.6H7.26738H7.26726C7.12029 19.6 6.97703 19.5538 6.8578 19.4679L6.56544 19.8735L6.8578 19.4679C6.73856 19.3819 6.64941 19.2606 6.60296 19.1212L6.60295 19.1212L4.47775 12.742L4.36383 12.4H4.00338H3.66738C2.84521 12.4 2.05671 12.0734 1.47535 11.492C0.893989 10.9107 0.567383 10.1222 0.567383 9.29999C0.567383 8.47782 0.893989 7.68933 1.47535 7.10796C2.05671 6.5266 2.84521 6.19999 3.66738 6.19999H8.18298Z" fill="#1C64F2" stroke="#1C64F2"/>
</svg>
