<svg width="18" height="17" viewBox="0 0 18 17" fill="none" xmlns="http://www.w3.org/2000/svg">
<path d="M1.65611 1.15647C2.01243 0.800153 2.4957 0.599976 2.99961 0.599976H5.39961C5.90352 0.599976 6.38679 0.800153 6.74311 1.15647C7.09943 1.51279 7.29961 1.99606 7.29961 2.49998V4.89998C7.29961 5.40389 7.09943 5.88716 6.74311 6.24348C6.38679 6.5998 5.90352 6.79998 5.39961 6.79998H2.99961C2.4957 6.79998 2.01243 6.5998 1.65611 6.24348C1.29979 5.88716 1.09961 5.40389 1.09961 4.89998V2.49998C1.09961 1.99606 1.29979 1.51279 1.65611 1.15647ZM1.65611 10.7565C2.01243 10.4002 2.4957 10.2 2.99961 10.2H5.39961C5.90352 10.2 6.38679 10.4002 6.74311 10.7565C7.09943 11.1128 7.29961 11.5961 7.29961 12.1V14.5C7.29961 15.0039 7.09943 15.4872 6.74311 15.8435C6.38679 16.1998 5.90352 16.4 5.39961 16.4H2.99961C2.4957 16.4 2.01243 16.1998 1.65611 15.8435C1.29979 15.4872 1.09961 15.0039 1.09961 14.5V12.1C1.09961 11.5961 1.29979 11.1128 1.65611 10.7565ZM10.6996 2.49998C10.6996 1.99606 10.8998 1.51279 11.2561 1.15647C11.6124 0.800153 12.0957 0.599976 12.5996 0.599976H14.9996C15.5035 0.599976 15.9868 0.800153 16.3431 1.15647C16.6994 1.51279 16.8996 1.99606 16.8996 2.49998V4.89998C16.8996 5.40389 16.6994 5.88716 16.3431 6.24348C15.9868 6.5998 15.5035 6.79998 14.9996 6.79998H12.5996C12.0957 6.79998 11.6124 6.5998 11.2561 6.24348C10.8998 5.88716 10.6996 5.40389 10.6996 4.89998V2.49998ZM10.6996 12.1C10.6996 11.5961 10.8998 11.1128 11.2561 10.7565C11.6124 10.4002 12.0957 10.2 12.5996 10.2H14.9996C15.5035 10.2 15.9868 10.4002 16.3431 10.7565C16.6994 11.1128 16.8996 11.5961 16.8996 12.1V14.5C16.8996 15.0039 16.6994 15.4872 16.3431 15.8435C15.9868 16.1998 15.5035 16.4 14.9996 16.4H12.5996C12.0957 16.4 11.6124 16.1998 11.2561 15.8435C10.8998 15.4872 10.6996 15.0039 10.6996 14.5V12.1Z" fill="#1C64F2" stroke="#1C64F2"/>
</svg>
