<svg width="20" height="19" viewBox="0 0 20 19" fill="none" xmlns="http://www.w3.org/2000/svg">
<path d="M6.75394 14.1464L6.6075 14H6.40039H2.80039C2.29648 14 1.81321 13.7998 1.45689 13.4435C1.10057 13.0872 0.900391 12.6039 0.900391 12.1V2.49998C0.900391 1.99606 1.10057 1.51279 1.45689 1.15647C1.81321 0.800154 2.29648 0.599976 2.80039 0.599976H17.2004C17.7043 0.599976 18.1876 0.800153 18.5439 1.15647C18.9002 1.51279 19.1004 1.99606 19.1004 2.49998V12.1C19.1004 12.6039 18.9002 13.0872 18.5439 13.4435C18.1876 13.7998 17.7043 14 17.2004 14H13.6004H13.3933L13.2468 14.1464L10.0004 17.3929L6.75394 14.1464ZM3.99831 3.69789C3.6795 4.01671 3.50039 4.44911 3.50039 4.89998C3.50039 5.35084 3.6795 5.78325 3.99831 6.10206C4.31712 6.42087 4.74952 6.59998 5.20039 6.59998H14.8004C15.2513 6.59998 15.6837 6.42087 16.0025 6.10206C16.3213 5.78325 16.5004 5.35084 16.5004 4.89998C16.5004 4.44911 16.3213 4.01671 16.0025 3.69789C15.6837 3.37908 15.2513 3.19998 14.8004 3.19998H5.20039C4.74952 3.19998 4.31712 3.37908 3.99831 3.69789ZM5.20039 7.99998C4.74952 7.99998 4.31712 8.17908 3.99831 8.49789C3.6795 8.81671 3.50039 9.24911 3.50039 9.69998C3.50039 10.1508 3.6795 10.5832 3.99831 10.9021C4.31712 11.2209 4.74952 11.4 5.20039 11.4H8.80039C9.25126 11.4 9.68366 11.2209 10.0025 10.9021C10.3213 10.5832 10.5004 10.1508 10.5004 9.69998C10.5004 9.24911 10.3213 8.81671 10.0025 8.49789C9.68366 8.17908 9.25126 7.99998 8.80039 7.99998H5.20039Z" fill="#1C64F2" stroke="#1C64F2"/>
</svg>
